<mxfile host="app.diagrams.net" agent="Mozilla/5.0 (Windows NT 10.0; Win64; x64) AppleWebKit/537.36 (KHTML, like Gecko) Chrome/129.0.0.0 Safari/537.36" version="24.7.16">
  <diagram name="Страница — 1" id="hDEHx32wJXKjq6ueXip5">
    <mxGraphModel dx="996" dy="526" grid="1" gridSize="10" guides="1" tooltips="1" connect="1" arrows="1" fold="1" page="1" pageScale="1" pageWidth="827" pageHeight="1169" math="0" shadow="0">
      <root>
        <mxCell id="0" />
        <mxCell id="1" parent="0" />
        <mxCell id="GovRdeA1VMItJWWdl3C1-1" value="&#xa;&lt;span style=&quot;color: rgb(60, 64, 67); font-family: Roboto, Arial, sans-serif; font-size: 14px; font-variant-ligatures: normal; font-variant-caps: normal; letter-spacing: 0.2px; orphans: 2; text-align: left; text-indent: 0px; text-transform: none; widows: 2; word-spacing: 0px; -webkit-text-stroke-width: 0px; white-space: normal; text-decoration-thickness: initial; text-decoration-style: initial; text-decoration-color: initial; float: none; display: inline !important;&quot;&gt;Я, как клиент банка, хочу иметь возможность заказать карту онлайн, чтобы начать ее использование до получения физического пластика и не посещать банк&lt;/span&gt;&#xa;&#xa;" style="text;html=1;align=center;verticalAlign=middle;whiteSpace=wrap;rounded=0;fontStyle=3" vertex="1" parent="1">
          <mxGeometry x="99" y="20" width="630" height="70" as="geometry" />
        </mxCell>
        <mxCell id="GovRdeA1VMItJWWdl3C1-16" style="edgeStyle=orthogonalEdgeStyle;rounded=0;orthogonalLoop=1;jettySize=auto;html=1;exitX=0.503;exitY=0.88;exitDx=0;exitDy=0;entryX=0.5;entryY=0;entryDx=0;entryDy=0;exitPerimeter=0;" edge="1" parent="1" source="GovRdeA1VMItJWWdl3C1-2" target="GovRdeA1VMItJWWdl3C1-5">
          <mxGeometry relative="1" as="geometry" />
        </mxCell>
        <mxCell id="GovRdeA1VMItJWWdl3C1-2" value="" style="ellipse;html=1;shape=startState;fillColor=#000000;strokeColor=#ff0000;" vertex="1" parent="1">
          <mxGeometry x="370" y="130" width="30" height="30" as="geometry" />
        </mxCell>
        <mxCell id="GovRdeA1VMItJWWdl3C1-5" value="Заказ в обработке" style="swimlane;fontStyle=1;align=center;verticalAlign=middle;childLayout=stackLayout;horizontal=1;startSize=30;horizontalStack=0;resizeParent=0;resizeLast=1;container=0;fontColor=#000000;collapsible=0;rounded=1;arcSize=30;strokeColor=#ff0000;fillColor=#ffffc0;swimlaneFillColor=#ffffc0;dropTarget=0;" vertex="1" parent="1">
          <mxGeometry x="295" y="240" width="180" height="90" as="geometry" />
        </mxCell>
        <mxCell id="GovRdeA1VMItJWWdl3C1-6" value="Пользователем" style="text;html=1;strokeColor=none;fillColor=none;align=center;verticalAlign=middle;spacingLeft=4;spacingRight=4;whiteSpace=wrap;overflow=hidden;rotatable=0;fontColor=#000000;" vertex="1" parent="GovRdeA1VMItJWWdl3C1-5">
          <mxGeometry y="30" width="180" height="60" as="geometry" />
        </mxCell>
        <mxCell id="GovRdeA1VMItJWWdl3C1-8" value="Заказ ожидает оплаты" style="swimlane;fontStyle=1;align=center;verticalAlign=middle;childLayout=stackLayout;horizontal=1;startSize=30;horizontalStack=0;resizeParent=0;resizeLast=1;container=0;fontColor=#000000;collapsible=0;rounded=1;arcSize=30;strokeColor=#ff0000;fillColor=#ffffc0;swimlaneFillColor=#ffffc0;dropTarget=0;" vertex="1" parent="1">
          <mxGeometry x="295" y="730" width="180" height="90" as="geometry" />
        </mxCell>
        <mxCell id="GovRdeA1VMItJWWdl3C1-9" value="Пользователем" style="text;html=1;strokeColor=none;fillColor=none;align=center;verticalAlign=middle;spacingLeft=4;spacingRight=4;whiteSpace=wrap;overflow=hidden;rotatable=0;fontColor=#000000;" vertex="1" parent="GovRdeA1VMItJWWdl3C1-8">
          <mxGeometry y="30" width="180" height="60" as="geometry" />
        </mxCell>
        <mxCell id="GovRdeA1VMItJWWdl3C1-34" style="edgeStyle=orthogonalEdgeStyle;rounded=0;orthogonalLoop=1;jettySize=auto;html=1;exitX=0;exitY=0.25;exitDx=0;exitDy=0;entryX=0;entryY=0.5;entryDx=0;entryDy=0;" edge="1" parent="GovRdeA1VMItJWWdl3C1-8" source="GovRdeA1VMItJWWdl3C1-8" target="GovRdeA1VMItJWWdl3C1-9">
          <mxGeometry relative="1" as="geometry">
            <mxPoint x="-5" y="75" as="targetPoint" />
            <Array as="points">
              <mxPoint x="-95" y="22" />
              <mxPoint x="-95" y="60" />
            </Array>
          </mxGeometry>
        </mxCell>
        <mxCell id="GovRdeA1VMItJWWdl3C1-35" value="Оплата не прошла" style="edgeLabel;html=1;align=center;verticalAlign=middle;resizable=0;points=[];" vertex="1" connectable="0" parent="GovRdeA1VMItJWWdl3C1-34">
          <mxGeometry x="-0.6191" relative="1" as="geometry">
            <mxPoint x="-2" y="-12" as="offset" />
          </mxGeometry>
        </mxCell>
        <mxCell id="GovRdeA1VMItJWWdl3C1-10" value="Заказ в ожидании выбора &#xa;типа карты" style="swimlane;fontStyle=1;align=center;verticalAlign=middle;childLayout=stackLayout;horizontal=1;startSize=30;horizontalStack=0;resizeParent=0;resizeLast=1;container=0;fontColor=#000000;collapsible=0;rounded=1;arcSize=30;strokeColor=#ff0000;fillColor=#ffffc0;swimlaneFillColor=#ffffc0;dropTarget=0;" vertex="1" parent="1">
          <mxGeometry x="295" y="400" width="180" height="90" as="geometry" />
        </mxCell>
        <mxCell id="GovRdeA1VMItJWWdl3C1-11" value="Пользователем" style="text;html=1;strokeColor=none;fillColor=none;align=center;verticalAlign=middle;spacingLeft=4;spacingRight=4;whiteSpace=wrap;overflow=hidden;rotatable=0;fontColor=#000000;" vertex="1" parent="GovRdeA1VMItJWWdl3C1-10">
          <mxGeometry y="30" width="180" height="60" as="geometry" />
        </mxCell>
        <mxCell id="GovRdeA1VMItJWWdl3C1-31" style="edgeStyle=orthogonalEdgeStyle;rounded=0;orthogonalLoop=1;jettySize=auto;html=1;exitX=1;exitY=0.25;exitDx=0;exitDy=0;entryX=1;entryY=0.5;entryDx=0;entryDy=0;" edge="1" parent="GovRdeA1VMItJWWdl3C1-10" source="GovRdeA1VMItJWWdl3C1-10" target="GovRdeA1VMItJWWdl3C1-11">
          <mxGeometry relative="1" as="geometry">
            <Array as="points">
              <mxPoint x="345" y="22" />
              <mxPoint x="345" y="60" />
            </Array>
          </mxGeometry>
        </mxCell>
        <mxCell id="GovRdeA1VMItJWWdl3C1-32" value="&lt;font style=&quot;font-size: 12px;&quot;&gt;Подходящего типа карты нет&lt;/font&gt;" style="edgeLabel;html=1;align=center;verticalAlign=middle;resizable=0;points=[];" vertex="1" connectable="0" parent="GovRdeA1VMItJWWdl3C1-31">
          <mxGeometry x="-0.8067" y="3" relative="1" as="geometry">
            <mxPoint x="51" y="-9" as="offset" />
          </mxGeometry>
        </mxCell>
        <mxCell id="GovRdeA1VMItJWWdl3C1-12" value="Заказ ожидает подтверждения&#xa;внесенных данных" style="swimlane;fontStyle=1;align=center;verticalAlign=middle;childLayout=stackLayout;horizontal=1;startSize=30;horizontalStack=0;resizeParent=0;resizeLast=1;container=0;fontColor=#000000;collapsible=0;rounded=1;arcSize=30;strokeColor=#ff0000;fillColor=#ffffc0;swimlaneFillColor=#ffffc0;dropTarget=0;" vertex="1" parent="1">
          <mxGeometry x="295" y="570" width="180" height="90" as="geometry" />
        </mxCell>
        <mxCell id="GovRdeA1VMItJWWdl3C1-13" value="Пользователем" style="text;html=1;strokeColor=none;fillColor=none;align=center;verticalAlign=middle;spacingLeft=4;spacingRight=4;whiteSpace=wrap;overflow=hidden;rotatable=0;fontColor=#000000;" vertex="1" parent="GovRdeA1VMItJWWdl3C1-12">
          <mxGeometry y="30" width="180" height="60" as="geometry" />
        </mxCell>
        <mxCell id="GovRdeA1VMItJWWdl3C1-14" value="" style="ellipse;html=1;shape=endState;fillColor=#000000;strokeColor=#ff0000;" vertex="1" parent="1">
          <mxGeometry x="370" y="1060" width="30" height="30" as="geometry" />
        </mxCell>
        <mxCell id="GovRdeA1VMItJWWdl3C1-17" style="edgeStyle=orthogonalEdgeStyle;rounded=0;orthogonalLoop=1;jettySize=auto;html=1;exitX=0.5;exitY=1;exitDx=0;exitDy=0;entryX=0.5;entryY=0;entryDx=0;entryDy=0;" edge="1" parent="1" source="GovRdeA1VMItJWWdl3C1-6" target="GovRdeA1VMItJWWdl3C1-10">
          <mxGeometry relative="1" as="geometry" />
        </mxCell>
        <mxCell id="GovRdeA1VMItJWWdl3C1-18" style="edgeStyle=orthogonalEdgeStyle;rounded=0;orthogonalLoop=1;jettySize=auto;html=1;exitX=0.5;exitY=1;exitDx=0;exitDy=0;entryX=0.5;entryY=0;entryDx=0;entryDy=0;" edge="1" parent="1" source="GovRdeA1VMItJWWdl3C1-11" target="GovRdeA1VMItJWWdl3C1-12">
          <mxGeometry relative="1" as="geometry" />
        </mxCell>
        <mxCell id="GovRdeA1VMItJWWdl3C1-19" style="edgeStyle=orthogonalEdgeStyle;rounded=0;orthogonalLoop=1;jettySize=auto;html=1;exitX=0.5;exitY=1;exitDx=0;exitDy=0;entryX=0.5;entryY=0;entryDx=0;entryDy=0;" edge="1" parent="1" source="GovRdeA1VMItJWWdl3C1-13" target="GovRdeA1VMItJWWdl3C1-8">
          <mxGeometry relative="1" as="geometry" />
        </mxCell>
        <mxCell id="GovRdeA1VMItJWWdl3C1-21" value="Ожидание заявки" style="text;html=1;align=center;verticalAlign=middle;resizable=0;points=[];autosize=1;strokeColor=none;fillColor=none;" vertex="1" parent="1">
          <mxGeometry x="400" y="130" width="110" height="30" as="geometry" />
        </mxCell>
        <mxCell id="GovRdeA1VMItJWWdl3C1-22" value="Заказ сформирован" style="swimlane;fontStyle=1;align=center;verticalAlign=middle;childLayout=stackLayout;horizontal=1;startSize=30;horizontalStack=0;resizeParent=0;resizeLast=1;container=0;fontColor=#000000;collapsible=0;rounded=1;arcSize=30;strokeColor=#ff0000;fillColor=#ffffc0;swimlaneFillColor=#ffffc0;dropTarget=0;" vertex="1" parent="1">
          <mxGeometry x="295" y="890" width="180" height="90" as="geometry" />
        </mxCell>
        <mxCell id="GovRdeA1VMItJWWdl3C1-23" value="Системой" style="text;html=1;strokeColor=none;fillColor=none;align=center;verticalAlign=middle;spacingLeft=4;spacingRight=4;whiteSpace=wrap;overflow=hidden;rotatable=0;fontColor=#000000;" vertex="1" parent="GovRdeA1VMItJWWdl3C1-22">
          <mxGeometry y="30" width="180" height="60" as="geometry" />
        </mxCell>
        <mxCell id="GovRdeA1VMItJWWdl3C1-25" style="edgeStyle=orthogonalEdgeStyle;rounded=0;orthogonalLoop=1;jettySize=auto;html=1;exitX=0.5;exitY=1;exitDx=0;exitDy=0;" edge="1" parent="1" source="GovRdeA1VMItJWWdl3C1-9" target="GovRdeA1VMItJWWdl3C1-22">
          <mxGeometry relative="1" as="geometry" />
        </mxCell>
        <mxCell id="GovRdeA1VMItJWWdl3C1-26" style="edgeStyle=orthogonalEdgeStyle;rounded=0;orthogonalLoop=1;jettySize=auto;html=1;exitX=0.5;exitY=1;exitDx=0;exitDy=0;entryX=0.5;entryY=0;entryDx=0;entryDy=0;" edge="1" parent="1" source="GovRdeA1VMItJWWdl3C1-23" target="GovRdeA1VMItJWWdl3C1-14">
          <mxGeometry relative="1" as="geometry" />
        </mxCell>
        <mxCell id="GovRdeA1VMItJWWdl3C1-28" value="Клиент открыл раздел заказа карты" style="text;html=1;align=center;verticalAlign=middle;resizable=0;points=[];autosize=1;strokeColor=none;fillColor=none;" vertex="1" parent="1">
          <mxGeometry x="180" y="180" width="210" height="30" as="geometry" />
        </mxCell>
        <mxCell id="GovRdeA1VMItJWWdl3C1-29" value="Клиент внес необходимые данные по заказу" style="text;html=1;align=center;verticalAlign=middle;resizable=0;points=[];autosize=1;strokeColor=none;fillColor=none;" vertex="1" parent="1">
          <mxGeometry x="380" y="348" width="250" height="30" as="geometry" />
        </mxCell>
        <mxCell id="GovRdeA1VMItJWWdl3C1-30" value="Клиент выбрал подходящий тип карты" style="text;html=1;align=center;verticalAlign=middle;resizable=0;points=[];autosize=1;strokeColor=none;fillColor=none;" vertex="1" parent="1">
          <mxGeometry x="170" y="508" width="220" height="30" as="geometry" />
        </mxCell>
        <mxCell id="GovRdeA1VMItJWWdl3C1-33" value="Клиент подтвердил внесенные данные" style="text;html=1;align=center;verticalAlign=middle;resizable=0;points=[];autosize=1;strokeColor=none;fillColor=none;" vertex="1" parent="1">
          <mxGeometry x="380" y="680" width="220" height="30" as="geometry" />
        </mxCell>
        <mxCell id="GovRdeA1VMItJWWdl3C1-36" value="Клиент успешно оплатил заказ" style="text;html=1;align=center;verticalAlign=middle;resizable=0;points=[];autosize=1;strokeColor=none;fillColor=none;" vertex="1" parent="1">
          <mxGeometry x="380" y="838" width="180" height="30" as="geometry" />
        </mxCell>
      </root>
    </mxGraphModel>
  </diagram>
</mxfile>
